<svg width="180" height="171" viewBox="0 0 180 171" fill="none" xmlns="http://www.w3.org/2000/svg">
<path d="M90 0L86.0801 0.175781L82.1953 0.685547L78.3457 1.5293L74.6016 2.72461L70.9805 4.21875L67.5 6.0293L64.1953 8.15625L61.084 10.5469L58.166 13.1836L55.5293 16.084L53.1387 19.1953L51.0293 22.5L49.2188 25.998L47.7246 29.6191L46.5293 33.3633L45.6855 37.1953L45.1758 41.0977L45 45.0176L45.1582 51.1348L45.668 57.2344L46.4941 63.3164L47.6543 69.3281L49.1309 75.252L50.9414 81.123L53.0859 86.8711L55.4941 92.4785L58.2363 97.9629L59.8711 100.74L61.7695 103.359L62.3672 104.361L62.6836 105.486L62.7188 106.629L62.4375 107.771L61.875 108.791L61.084 109.635L60.0996 110.25L58.9746 110.584L51.2578 112.043L43.5938 113.818L36.0176 115.91L28.5293 118.318L21.1641 121.008L18.3164 122.326L15.6445 123.943L13.1836 125.877L10.9512 128.074L8.98242 130.5L7.33008 133.154L5.97656 135.984L4.18359 140.871L2.67188 145.881L1.51172 150.979L0.667969 156.111L0.175781 161.314L0 166.535L0.175781 167.801L0.720703 168.979L1.54688 169.945L2.63672 170.631L3.84961 171H5.15039L6.36328 170.631L7.45312 169.945L8.2793 168.979L8.82422 167.801L9 166.535L9.1582 161.895L9.59766 157.289L10.3359 152.684L11.373 148.184L12.709 143.719L14.3086 139.377L15.3809 137.18L16.7344 135.158L18.3516 133.348L20.1973 131.766L22.2363 130.43L24.4336 129.41L31.4648 126.809L38.584 124.523L45.791 122.537L53.1035 120.85L60.4512 119.461L62.5254 118.951L64.5293 118.107L66.3398 116.965L67.957 115.523L69.3105 113.871L70.4004 111.99L71.1914 109.986L71.6133 107.877L71.7363 105.732L71.4902 103.588L70.9102 101.514L70.0137 99.5625L68.8359 97.7871L67.4121 95.8008L66.1816 93.7441L63.668 88.6992L61.4355 83.5137L59.4844 78.2402L57.8145 72.8438L56.4609 67.377L55.3887 61.8398L54.6152 56.2676L54.1406 50.6602L54 45.0176L54.1758 41.4844L54.7031 37.9863L55.5469 34.5586L56.7422 31.2363L58.2539 28.0371L60.0645 25.0137L62.1738 22.166L64.5293 19.5469L67.166 17.1738L69.9961 15.0645L73.0371 13.2715L76.2363 11.7422L79.5586 10.5645L82.9688 9.70312L86.4668 9.17578L90 9L93.5332 9.17578L97.0312 9.70312L100.441 10.5645L103.764 11.7422L106.98 13.2715L110.004 15.0645L112.834 17.1738L115.471 19.5469L117.826 22.166L119.936 25.0137L121.746 28.0371L123.258 31.2363L124.453 34.5586L125.314 37.9863L125.842 41.4844L126 45.0176L125.859 50.6602L125.385 56.2676L124.611 61.8398L123.557 67.377L122.186 72.8438L120.516 78.2402L118.564 83.5137L116.332 88.6992L113.818 93.7441L112.588 95.8008L111.164 97.7871L109.986 99.5625L109.09 101.514L108.51 103.588L108.264 105.732L108.387 107.877L108.826 109.986L109.6 111.99L110.689 113.871L112.061 115.523L113.66 116.965L115.471 118.107L117.475 118.951L119.549 119.461L126.896 120.85L134.209 122.537L141.416 124.523L148.553 126.809L155.566 129.41L157.764 130.43L159.803 131.766L161.648 133.348L163.266 135.158L164.619 137.18L165.691 139.377L167.291 143.719L168.627 148.184L169.664 152.684L170.402 157.289L170.842 161.895L171 166.535L171.176 167.801L171.721 168.979L172.547 169.945L173.637 170.631L174.85 171H176.15L177.381 170.631L178.453 169.945L179.279 168.979L179.824 167.801L180 166.535L179.824 161.314L179.332 156.111L178.488 150.961L177.328 145.881L175.816 140.871L174.023 135.984L172.67 133.154L171.018 130.5L169.049 128.074L166.816 125.877L164.373 123.943L161.701 122.326L158.836 121.008L151.471 118.318L143.982 115.91L136.406 113.818L128.76 112.043L121.025 110.584L119.9 110.25L118.916 109.635L118.125 108.791L117.562 107.771L117.299 106.629L117.316 105.486L117.633 104.361L118.23 103.359L120.129 100.74L121.764 97.9629L124.506 92.4785L126.932 86.8711L129.059 81.123L130.869 75.252L132.346 69.3281L133.506 63.3164L134.332 57.2344L134.842 51.1348L135 45.0176L134.842 41.0977L134.314 37.1953L133.471 33.3633L132.275 29.6191L130.781 25.998L128.971 22.5L126.879 19.1953L124.471 16.084L121.834 13.1836L118.916 10.5469L115.822 8.15625L112.5 6.0293L109.02 4.21875L105.398 2.72461L101.654 1.5293L97.8047 0.685547L93.9199 0.175781L90 0Z" fill="black"/>
</svg>
