<svg width="1400" height="808" viewBox="0 0 1400 808" fill="none" xmlns="http://www.w3.org/2000/svg">
<path opacity="0.2" d="M0 238V808C93.3333 747.613 186.667 712.073 280 701.38C373.33 690.7 466.67 651.38 560 637.59C653.33 623.8 746.67 558.69 840 523C933.33 487.31 1026.67 481.89 1120 506.75C1213.33 531.61 1306.67 424.75 1400 309.4V238H0Z" fill="url(#paint0_linear_29_14)"/>
<path opacity="0.4" d="M0 238V790C93.3333 749.02 186.667 722.75 280 711.19C404.94 695.72 556.17 620.32 672 568.29C713.89 549.48 752.58 520 798.27 515.29C816.27 513.45 834.49 515.66 852.49 517.85C902.8 524 939.15 526.48 988.83 513.94C1204.08 459.65 1306.67 311 1400 309.4V238H0Z" fill="url(#paint1_linear_29_14)"/>
<path opacity="0.3" d="M0 238V757.63C93.3333 734.703 186.667 716.37 280 702.63C348.746 692.436 416.582 676.844 482.88 656C535.55 639.52 588.27 602 628.88 563.28C647.732 545.325 669.512 530.722 693.28 520.1C701.13 516.59 709.51 513.48 718.08 514.1C741.68 515.82 751.08 537.55 763.08 554.47C841.24 665.47 958.57 609.74 1034.48 540.53C1092.48 487.59 1306.67 268.05 1400 287.76V238H0Z" fill="url(#paint2_linear_29_14)"/>
<path opacity="0.12" d="M0 238V798.63C93.3333 741.423 186.667 705.15 280 689.81C354.78 677.517 429.797 666.79 505.05 657.63C570.82 649.63 603.87 624.27 652.64 573.2C682.5 541.94 705.7 504.61 737.11 474.91C747.54 465 761 455.49 775 458.32C787 460.73 796.24 470.76 802.2 481.42C855.76 577.31 926.2 577.26 980.79 550.52C1220.56 433.13 1191.17 447.82 1400 309.4V238H0Z" fill="url(#paint3_linear_29_14)"/>
<path d="M0 233V672.85C93.2785 681.79 187.296 679.4 280 665.73C381.45 650.86 507.12 635.42 588.41 567.89L709.58 467.22C727.88 452.01 749.19 435.87 772.79 438.92C801.53 442.64 818.2 472.05 838.56 492.67C913.81 568.85 1273.29 338.21 1400 235.51V233H0Z" fill="url(#paint4_linear_29_14)"/>
<mask id="mask0_29_14" style="mask-type:luminance" maskUnits="userSpaceOnUse" x="0" y="0" width="1400" height="240">
<path d="M1400 0H0V240H1400V0Z" fill="white"/>
</mask>
<g mask="url(#mask0_29_14)">
<path d="M33.4444 22.3073L0 30.0569V240H1400V87.8264L1366.56 103.326C1333.11 118.825 1266.22 149.823 1199.64 162.786C1132.91 175.608 1066.64 170.535 999.909 145.878C933.333 121.22 866.442 76.977 799.867 66.2685C733.133 55.4191 666.867 77.9633 600.133 78.386C533.556 78.9496 466.667 57.2508 400.089 37.8064C333.356 18.3621 267.089 0.890336 200.356 0.0449288C133.778 -0.94138 66.8891 14.5577 33.4444 22.3073Z" fill="white"/>
<path d="M33.4444 170.535L0 190.684V240H1400V87.8262L1366.56 91.7714C1333.11 95.8575 1266.22 103.748 1199.64 121.642C1132.91 139.537 1066.64 167.154 999.909 163.208C933.333 159.263 866.442 123.474 799.867 123.051C733.133 122.629 666.867 157.29 600.133 176.594C533.556 195.897 466.667 199.561 400.089 179.13C333.356 158.699 267.089 114.175 200.356 112.061C133.778 109.948 66.8891 150.245 33.4444 170.535Z" fill="#6EFFE3"/>
</g>
<defs>
<linearGradient id="paint0_linear_29_14" x1="769.88" y1="740.175" x2="732.339" y2="173.383" gradientUnits="userSpaceOnUse">
<stop stop-color="#6EFF78"/>
<stop offset="1" stop-color="#6EFFE3"/>
</linearGradient>
<linearGradient id="paint1_linear_29_14" x1="787.07" y1="777.562" x2="751.865" y2="220.896" gradientUnits="userSpaceOnUse">
<stop stop-color="#6EFF78"/>
<stop offset="1" stop-color="#6EFFE3"/>
</linearGradient>
<linearGradient id="paint2_linear_29_14" x1="769.88" y1="725.458" x2="738.658" y2="208.372" gradientUnits="userSpaceOnUse">
<stop stop-color="#6EFF78"/>
<stop offset="1" stop-color="#6EFFE3"/>
</linearGradient>
<linearGradient id="paint3_linear_29_14" x1="769.88" y1="721.79" x2="733.558" y2="164.235" gradientUnits="userSpaceOnUse">
<stop stop-color="#6EFF78"/>
<stop offset="1" stop-color="#6EFFE3"/>
</linearGradient>
<linearGradient id="paint4_linear_29_14" x1="769.88" y1="648.233" x2="742.361" y2="194.863" gradientUnits="userSpaceOnUse">
<stop stop-color="#6EFF78"/>
<stop offset="0.82" stop-color="#6EFFE3"/>
</linearGradient>
</defs>
</svg>
