<svg width="231" height="228" viewBox="0 0 231 228" fill="none" xmlns="http://www.w3.org/2000/svg">
<path d="M116 54L112.08 54.1758L108.195 54.6855L104.346 55.5293L100.602 56.7246L96.9805 58.2188L93.5 60.0293L90.1953 62.1562L87.084 64.5469L84.166 67.1836L81.5293 70.084L79.1387 73.1953L77.0293 76.5L75.2188 79.998L73.7246 83.6191L72.5293 87.3633L71.6855 91.1953L71.1758 95.0977L71 99.0176L71.1582 105.135L71.668 111.234L72.4941 117.316L73.6543 123.328L75.1309 129.252L76.9414 135.123L79.0859 140.871L81.4941 146.479L84.2363 151.963L85.8711 154.74L87.7695 157.359L88.3672 158.361L88.6836 159.486L88.7188 160.629L88.4375 161.771L87.875 162.791L87.084 163.635L86.0996 164.25L84.9746 164.584L77.2578 166.043L69.5938 167.818L62.0176 169.91L54.5293 172.318L47.1641 175.008L44.3164 176.326L41.6445 177.943L39.1836 179.877L36.9512 182.074L34.9824 184.5L33.3301 187.154L31.9766 189.984L30.1836 194.871L28.6719 199.881L27.5117 204.979L26.668 210.111L26.1758 215.314L26 220.535L26.1758 221.801L26.7207 222.979L27.5469 223.945L28.6367 224.631L29.8496 225H31.1504L32.3633 224.631L33.4531 223.945L34.2793 222.979L34.8242 221.801L35 220.535L35.1582 215.895L35.5977 211.289L36.3359 206.684L37.373 202.184L38.709 197.719L40.3086 193.377L41.3809 191.18L42.7344 189.158L44.3516 187.348L46.1973 185.766L48.2363 184.43L50.4336 183.41L57.4648 180.809L64.584 178.523L71.791 176.537L79.1035 174.85L86.4512 173.461L88.5254 172.951L90.5293 172.107L92.3398 170.965L93.957 169.523L95.3105 167.871L96.4004 165.99L97.1914 163.986L97.6133 161.877L97.7363 159.732L97.4902 157.588L96.9102 155.514L96.0137 153.562L94.8359 151.787L93.4121 149.801L92.1816 147.744L89.668 142.699L87.4355 137.514L85.4844 132.24L83.8145 126.844L82.4609 121.377L81.3887 115.84L80.6152 110.268L80.1406 104.66L80 99.0176L80.1758 95.4844L80.7031 91.9863L81.5469 88.5586L82.7422 85.2363L84.2539 82.0371L86.0645 79.0137L88.1738 76.166L90.5293 73.5469L93.166 71.1738L95.9961 69.0645L99.0371 67.2715L102.236 65.7422L105.559 64.5645L108.969 63.7031L112.467 63.1758L116 63L119.533 63.1758L123.031 63.7031L126.441 64.5645L129.764 65.7422L132.98 67.2715L136.004 69.0645L138.834 71.1738L141.471 73.5469L143.826 76.166L145.936 79.0137L147.746 82.0371L149.258 85.2363L150.453 88.5586L151.314 91.9863L151.842 95.4844L152 99.0176L151.859 104.66L151.385 110.268L150.611 115.84L149.557 121.377L148.186 126.844L146.516 132.24L144.564 137.514L142.332 142.699L139.818 147.744L138.588 149.801L137.164 151.787L135.986 153.562L135.09 155.514L134.51 157.588L134.264 159.732L134.387 161.877L134.826 163.986L135.6 165.99L136.689 167.871L138.061 169.523L139.66 170.965L141.471 172.107L143.475 172.951L145.549 173.461L152.896 174.85L160.209 176.537L167.416 178.523L174.553 180.809L181.566 183.41L183.764 184.43L185.803 185.766L187.648 187.348L189.266 189.158L190.619 191.18L191.691 193.377L193.291 197.719L194.627 202.184L195.664 206.684L196.402 211.289L196.842 215.895L197 220.535L197.176 221.801L197.721 222.979L198.547 223.945L199.637 224.631L200.85 225H202.15L203.381 224.631L204.453 223.945L205.279 222.979L205.824 221.801L206 220.535L205.824 215.314L205.332 210.111L204.488 204.961L203.328 199.881L201.816 194.871L200.023 189.984L198.67 187.154L197.018 184.5L195.049 182.074L192.816 179.877L190.373 177.943L187.701 176.326L184.836 175.008L177.471 172.318L169.982 169.91L162.406 167.818L154.76 166.043L147.025 164.584L145.9 164.25L144.916 163.635L144.125 162.791L143.562 161.771L143.299 160.629L143.316 159.486L143.633 158.361L144.23 157.359L146.129 154.74L147.764 151.963L150.506 146.479L152.932 140.871L155.059 135.123L156.869 129.252L158.346 123.328L159.506 117.316L160.332 111.234L160.842 105.135L161 99.0176L160.842 95.0977L160.314 91.1953L159.471 87.3633L158.275 83.6191L156.781 79.998L154.971 76.5L152.879 73.1953L150.471 70.084L147.834 67.1836L144.916 64.5469L141.822 62.1562L138.5 60.0293L135.02 58.2188L131.398 56.7246L127.654 55.5293L123.805 54.6855L119.92 54.1758L116 54Z" fill="black"/>
<rect x="6" y="6" width="219" height="216" rx="32" stroke="black" stroke-width="12"/>
</svg>
