<svg width="1400" height="720" viewBox="0 0 1400 720" fill="none" xmlns="http://www.w3.org/2000/svg">
<g clip-path="url(#clip0_33_4)">
<path opacity="0.2" d="M0 150V720C93.3333 659.613 186.667 624.073 280 613.38C373.33 602.7 466.67 563.38 560 549.59C653.33 535.8 746.67 470.69 840 435C933.33 399.31 1026.67 393.89 1120 418.75C1213.33 443.61 1306.67 336.75 1400 221.4V150H0Z" fill="url(#paint0_linear_33_4)"/>
<path opacity="0.4" d="M0 150V702C93.3333 661.02 186.667 634.75 280 623.19C404.94 607.72 556.17 532.32 672 480.29C713.89 461.48 752.58 432 798.27 427.29C816.27 425.45 834.49 427.66 852.49 429.85C902.8 436 939.15 438.48 988.83 425.94C1204.08 371.65 1306.67 223 1400 221.4V150H0Z" fill="url(#paint1_linear_33_4)"/>
<path opacity="0.3" d="M0 150V669.63C93.3333 646.703 186.667 628.37 280 614.63C348.746 604.436 416.582 588.844 482.88 568C535.55 551.52 588.27 514 628.88 475.28C647.732 457.325 669.512 442.722 693.28 432.1C701.13 428.59 709.51 425.48 718.08 426.1C741.68 427.82 751.08 449.55 763.08 466.47C841.24 577.47 958.57 521.74 1034.48 452.53C1092.48 399.59 1306.67 180.05 1400 199.76V150H0Z" fill="url(#paint2_linear_33_4)"/>
<path opacity="0.12" d="M0 150V710.63C93.3333 653.423 186.667 617.15 280 601.81C354.78 589.517 429.797 578.79 505.05 569.63C570.82 561.63 603.87 536.27 652.64 485.2C682.5 453.94 705.7 416.61 737.11 386.91C747.54 377 761 367.49 775 370.32C787 372.73 796.24 382.76 802.2 393.42C855.76 489.31 926.2 489.26 980.79 462.52C1220.56 345.13 1191.17 359.82 1400 221.4V150H0Z" fill="url(#paint3_linear_33_4)"/>
<path d="M0 145V584.85C93.2785 593.79 187.296 591.4 280 577.73C381.45 562.86 507.12 547.42 588.41 479.89L709.58 379.22C727.88 364.01 749.19 347.87 772.79 350.92C801.53 354.64 818.2 384.05 838.56 404.67C913.81 480.85 1273.29 250.21 1400 147.51V145H0Z" fill="url(#paint4_linear_33_4)"/>
<mask id="mask0_33_4" style="mask-type:luminance" maskUnits="userSpaceOnUse" x="0" y="-88" width="1400" height="240">
<path d="M1400 -88H0V152H1400V-88Z" fill="white"/>
</mask>
<g mask="url(#mask0_33_4)">
<path d="M33.4444 82.535L0 102.684V152H1400V-0.173828L1366.56 3.77137C1333.11 7.85747 1266.22 15.748 1199.64 33.642C1132.91 51.537 1066.64 79.154 999.909 75.208C933.333 71.263 866.442 35.474 799.867 35.051C733.133 34.629 666.867 69.29 600.133 88.594C533.556 107.897 466.667 111.561 400.089 91.13C333.356 70.699 267.089 26.175 200.356 24.061C133.778 21.948 66.8891 62.245 33.4444 82.535Z" fill="#6EFFE3"/>
</g>
</g>
<defs>
<linearGradient id="paint0_linear_33_4" x1="769.88" y1="652.175" x2="732.339" y2="85.383" gradientUnits="userSpaceOnUse">
<stop stop-color="#6EFF78"/>
<stop offset="1" stop-color="#6EFFE3"/>
</linearGradient>
<linearGradient id="paint1_linear_33_4" x1="787.07" y1="689.562" x2="751.865" y2="132.896" gradientUnits="userSpaceOnUse">
<stop stop-color="#6EFF78"/>
<stop offset="1" stop-color="#6EFFE3"/>
</linearGradient>
<linearGradient id="paint2_linear_33_4" x1="769.88" y1="637.458" x2="738.658" y2="120.372" gradientUnits="userSpaceOnUse">
<stop stop-color="#6EFF78"/>
<stop offset="1" stop-color="#6EFFE3"/>
</linearGradient>
<linearGradient id="paint3_linear_33_4" x1="769.88" y1="633.79" x2="733.558" y2="76.235" gradientUnits="userSpaceOnUse">
<stop stop-color="#6EFF78"/>
<stop offset="1" stop-color="#6EFFE3"/>
</linearGradient>
<linearGradient id="paint4_linear_33_4" x1="769.88" y1="560.233" x2="742.361" y2="106.863" gradientUnits="userSpaceOnUse">
<stop stop-color="#6EFF78"/>
<stop offset="0.82" stop-color="#6EFFE3"/>
</linearGradient>
<clipPath id="clip0_33_4">
<rect width="1400" height="720" fill="white"/>
</clipPath>
</defs>
</svg>
