<svg width="1400" height="810" viewBox="0 0 1400 810" fill="none" xmlns="http://www.w3.org/2000/svg">
<path opacity="0.2" d="M0 240V810C93.3333 749.613 186.667 714.073 280 703.38C373.33 692.7 466.67 653.38 560 639.59C653.33 625.8 746.67 560.69 840 525C933.33 489.31 1026.67 483.89 1120 508.75C1213.33 533.61 1306.67 426.75 1400 311.4V240H0Z" fill="url(#paint0_linear_14_11)"/>
<path opacity="0.4" d="M0 240V792C93.3333 751.02 186.667 724.75 280 713.19C404.94 697.72 556.17 622.32 672 570.29C713.89 551.48 752.58 522 798.27 517.29C816.27 515.45 834.49 517.66 852.49 519.85C902.8 526 939.15 528.48 988.83 515.94C1204.08 461.65 1306.67 313 1400 311.4V240H0Z" fill="url(#paint1_linear_14_11)"/>
<path opacity="0.3" d="M0 240V759.63C93.3333 736.703 186.667 718.37 280 704.63C348.746 694.436 416.582 678.844 482.88 658C535.55 641.52 588.27 604 628.88 565.28C647.732 547.325 669.512 532.722 693.28 522.1C701.13 518.59 709.51 515.48 718.08 516.1C741.68 517.82 751.08 539.55 763.08 556.47C841.24 667.47 958.57 611.74 1034.48 542.53C1092.48 489.59 1306.67 270.05 1400 289.76V240H0Z" fill="url(#paint2_linear_14_11)"/>
<path opacity="0.12" d="M0 240V800.63C93.3333 743.423 186.667 707.15 280 691.81C354.78 679.517 429.797 668.79 505.05 659.63C570.82 651.63 603.87 626.27 652.64 575.2C682.5 543.94 705.7 506.61 737.11 476.91C747.54 467 761 457.49 775 460.32C787 462.73 796.24 472.76 802.2 483.42C855.76 579.31 926.2 579.26 980.79 552.52C1220.56 435.13 1191.17 449.82 1400 311.4V240H0Z" fill="url(#paint3_linear_14_11)"/>
<path d="M0 240V679.85C93.2785 688.79 187.296 686.4 280 672.73C381.45 657.86 507.12 642.42 588.41 574.89L709.58 474.22C727.88 459.01 749.19 442.87 772.79 445.92C801.53 449.64 818.2 479.05 838.56 499.67C913.81 575.85 1273.29 345.21 1400 242.51V240H0Z" fill="url(#paint4_linear_14_11)"/>
<g clip-path="url(#clip0_14_11)">
<path d="M33.4444 22.3073L0 30.0569V240H1400V87.8264L1366.56 103.326C1333.11 118.825 1266.22 149.823 1199.64 162.786C1132.91 175.608 1066.64 170.535 999.909 145.878C933.333 121.22 866.442 76.977 799.867 66.2685C733.133 55.4191 666.867 77.9633 600.133 78.386C533.556 78.9496 466.667 57.2508 400.089 37.8064C333.356 18.3621 267.089 0.890336 200.356 0.0449288C133.778 -0.94138 66.8891 14.5577 33.4444 22.3073Z" fill="white"/>
<path d="M33.4444 170.535L0 190.684V240H1400V87.8262L1366.56 91.7714C1333.11 95.8575 1266.22 103.748 1199.64 121.642C1132.91 139.537 1066.64 167.154 999.909 163.208C933.333 159.263 866.442 123.474 799.867 123.051C733.133 122.629 666.867 157.29 600.133 176.594C533.556 195.897 466.667 199.561 400.089 179.13C333.356 158.699 267.089 114.175 200.356 112.061C133.778 109.948 66.8891 150.245 33.4444 170.535Z" fill="#6EFFE3"/>
</g>
<defs>
<linearGradient id="paint0_linear_14_11" x1="769.88" y1="742.175" x2="732.339" y2="175.383" gradientUnits="userSpaceOnUse">
<stop stop-color="#6EFF78"/>
<stop offset="1" stop-color="#6EFFE3"/>
</linearGradient>
<linearGradient id="paint1_linear_14_11" x1="787.07" y1="779.562" x2="751.865" y2="222.896" gradientUnits="userSpaceOnUse">
<stop stop-color="#6EFF78"/>
<stop offset="1" stop-color="#6EFFE3"/>
</linearGradient>
<linearGradient id="paint2_linear_14_11" x1="769.88" y1="727.458" x2="738.658" y2="210.372" gradientUnits="userSpaceOnUse">
<stop stop-color="#6EFF78"/>
<stop offset="1" stop-color="#6EFFE3"/>
</linearGradient>
<linearGradient id="paint3_linear_14_11" x1="769.88" y1="723.79" x2="733.558" y2="166.235" gradientUnits="userSpaceOnUse">
<stop stop-color="#6EFF78"/>
<stop offset="1" stop-color="#6EFFE3"/>
</linearGradient>
<linearGradient id="paint4_linear_14_11" x1="769.88" y1="655.233" x2="742.361" y2="201.863" gradientUnits="userSpaceOnUse">
<stop stop-color="#6EFF78"/>
<stop offset="0.82" stop-color="#6EFFE3"/>
</linearGradient>
<clipPath id="clip0_14_11">
<rect width="1400" height="240" fill="white"/>
</clipPath>
</defs>
</svg>
